<svg width="32" height="32" viewBox="0 0 32 32" fill="none" xmlns="http://www.w3.org/2000/svg">
<rect width="32" height="32" fill="white"/>
<path d="M0 16C0 12.8355 0.938387 9.74207 2.69649 7.11088C4.45459 4.4797 6.95347 2.42893 9.87708 1.21793C12.8007 0.0069283 16.0178 -0.309919 19.1215 0.307444C22.2252 0.924807 25.0761 2.44867 27.3137 4.68631C29.5514 6.92395 31.0752 9.77488 31.6926 12.8786C32.3099 15.9823 31.9931 19.1993 30.7821 22.1229C29.5711 25.0466 27.5203 27.5454 24.8891 29.3035C22.2579 31.0616 19.1645 32 16 32C11.7565 32 7.68689 30.3143 4.6863 27.3137C1.68572 24.3131 0 20.2435 0 16Z" fill="#F2F2F2"/>
<path d="M12.1636 30.9489C15.8807 30.944 19.4802 29.6451 22.3438 27.2751C25.2074 24.9052 27.1565 21.6121 27.8564 17.9615C28.5563 14.3108 27.9632 10.5304 26.1791 7.26939C24.395 4.0084 21.5312 1.47037 18.0794 0.0911255C20.3294 0.387496 22.4906 1.15915 24.4196 2.35483C26.3485 3.55051 28.0011 5.14286 29.2674 7.02616C30.5338 8.90947 31.385 11.0406 31.7646 13.2781C32.1441 15.5156 32.0434 17.8083 31.4689 20.0039C30.8945 22.1994 29.8596 24.2477 28.4329 26.0126C27.0061 27.7776 25.2203 29.2188 23.1938 30.2406C21.1674 31.2624 18.9468 31.8414 16.6795 31.9392C14.4121 32.037 12.1499 31.6514 10.043 30.8078C10.7459 30.9017 11.4544 30.9488 12.1636 30.9489V30.9489Z" fill="#CCCCCC"/>
<path d="M25.6025 25.0968C26.6446 25.5883 28.2191 24.4369 29.1246 22.5211C30.0302 20.6053 29.9165 18.6576 28.8789 18.1662C27.8414 17.6747 26.2623 18.8306 25.3567 20.7418C24.4512 22.6531 24.5604 24.6053 25.6025 25.0968Z" fill="black"/>
<path d="M1.28809 12.5052C1.28809 10.1723 1.97985 7.89184 3.27593 5.95212C4.572 4.01241 6.41418 2.50059 8.56947 1.60784C10.7248 0.715085 13.0964 0.481482 15.3844 0.936603C17.6725 1.39172 19.7742 2.51511 21.4238 4.1647C23.0734 5.81429 24.1968 7.91601 24.6519 10.2041C25.107 12.4921 24.8734 14.8637 23.9807 17.019C23.0879 19.1743 21.5761 21.0165 19.6364 22.3125C17.6967 23.6086 15.4162 24.3004 13.0833 24.3004C11.5342 24.301 10.0001 23.9963 8.56875 23.4038C7.13742 22.8112 5.8369 21.9424 4.74149 20.847C3.64609 19.7516 2.77727 18.451 2.18471 17.0197C1.59216 15.5884 1.28749 14.0543 1.28809 12.5052Z" fill="black"/>
<path d="M8.56849 4.92816C8.89375 4.41851 9.36079 4.01496 9.91224 3.76709C10.4637 3.51922 11.0755 3.4378 11.6726 3.53286C12.2697 3.62792 12.826 3.89533 13.2732 4.3022C13.7204 4.70907 14.039 5.23769 14.1899 5.82315C14.3408 6.4086 14.3174 7.02538 14.1226 7.59774C13.9279 8.17009 13.5701 8.6731 13.0934 9.04494C12.6167 9.41679 12.0417 9.64129 11.4392 9.69087C10.8366 9.74046 10.2327 9.61296 9.70159 9.32405C8.96896 8.89086 8.43816 8.18466 8.22572 7.36048C8.01328 6.53631 8.13656 5.66153 8.56849 4.92816V4.92816Z" fill="white"/>
<path d="M4.52263 7.47653C4.66061 7.26091 4.85852 7.09025 5.09207 6.98547C5.32563 6.88069 5.58467 6.84634 5.83746 6.88665C6.09026 6.92695 6.32581 7.04017 6.5152 7.21239C6.70459 7.38461 6.83958 7.60835 6.90366 7.85618C6.96773 8.10402 6.95809 8.36517 6.87591 8.6076C6.79372 8.85003 6.64256 9.0632 6.44098 9.22098C6.23941 9.37876 5.99616 9.47429 5.74109 9.49584C5.48601 9.51739 5.23019 9.46403 5.005 9.3423C4.69413 9.15838 4.46884 8.85875 4.37843 8.50906C4.28802 8.15936 4.33986 7.78807 4.52263 7.47653Z" fill="white"/>
</svg>
