<svg xmlns="http://www.w3.org/2000/svg" width="32px" height="32px" viewBox="0 0 32 32" version="1.1">
    <g id="surface1">
        <path style=" stroke:none;fill-rule:nonzero;fill:rgb(95.294118%,72.941176%,18.431373%);fill-opacity:1;" d="M 9.785156 13.445312 L 16 7.230469 L 22.21875 13.449219 L 25.835938 9.832031 L 16 0 L 6.167969 9.832031 L 9.785156 13.445312 M 0 16 L 3.617188 12.382812 L 7.230469 16 L 3.617188 19.617188 Z M 9.785156 18.554688 L 16 24.769531 L 22.21875 18.550781 L 25.835938 22.164062 L 16 32 L 6.167969 22.171875 L 6.164062 22.164062 L 9.785156 18.554688 M 24.769531 16 L 28.382812 12.386719 L 32 16 L 28.386719 19.617188 Z M 24.769531 16 "/>
        <path style=" stroke:none;fill-rule:nonzero;fill:rgb(95.294118%,72.941176%,18.431373%);fill-opacity:1;" d="M 19.667969 16 L 16 12.328125 L 12.328125 16 L 16 19.671875 L 19.667969 16.003906 "/>
    </g>
</svg>
