<svg xmlns="http://www.w3.org/2000/svg" width="32px" height="28px" viewBox="0 0 31 28" version="1.1">
    <g id="surface1">
        <path style=" stroke:none;fill-rule:nonzero;fill:rgb(50.980392%,27.843137%,89.803922%);fill-opacity:1;" d="M 23.410156 8.660156 C 22.847656 8.335938 22.121094 8.335938 21.472656 8.660156 L 16.953125 11.351562 L 13.886719 13.0625 L 9.445312 15.753906 C 8.878906 16.078125 8.152344 16.078125 7.507812 15.753906 L 4.035156 13.632812 C 3.472656 13.308594 3.066406 12.65625 3.066406 11.921875 L 3.066406 7.847656 C 3.066406 7.195312 3.390625 6.542969 4.035156 6.136719 L 7.507812 4.097656 C 8.074219 3.773438 8.800781 3.773438 9.445312 4.097656 L 12.917969 6.21875 C 13.480469 6.542969 13.886719 7.195312 13.886719 7.929688 L 13.886719 10.617188 L 16.953125 8.824219 L 16.953125 6.054688 C 16.953125 5.402344 16.628906 4.75 15.984375 4.34375 L 9.527344 0.511719 C 8.960938 0.1875 8.234375 0.1875 7.589844 0.511719 L 0.96875 4.425781 C 0.324219 4.75 0 5.402344 0 6.054688 L 0 13.714844 C 0 14.367188 0.324219 15.019531 0.96875 15.425781 L 7.507812 19.257812 C 8.074219 19.582031 8.800781 19.582031 9.445312 19.257812 L 13.886719 16.648438 L 16.953125 14.855469 L 21.394531 12.246094 C 21.957031 11.921875 22.683594 11.921875 23.332031 12.246094 L 26.800781 14.285156 C 27.367188 14.609375 27.769531 15.261719 27.769531 15.996094 L 27.769531 20.070312 C 27.769531 20.722656 27.449219 21.375 26.800781 21.78125 L 23.410156 23.820312 C 22.847656 24.144531 22.121094 24.144531 21.472656 23.820312 L 18.003906 21.78125 C 17.4375 21.457031 17.035156 20.804688 17.035156 20.070312 L 17.035156 17.464844 L 13.964844 19.257812 L 13.964844 21.945312 C 13.964844 22.597656 14.289062 23.25 14.933594 23.65625 L 21.472656 27.488281 C 22.039062 27.8125 22.765625 27.8125 23.410156 27.488281 L 29.949219 23.65625 C 30.515625 23.332031 30.917969 22.679688 30.917969 21.945312 L 30.917969 14.203125 C 30.917969 13.550781 30.597656 12.898438 29.949219 12.492188 Z M 23.410156 8.660156 "/>
    </g>
</svg>
