<svg width="24" height="24" viewBox="0 0 24 24" xmlns="http://www.w3.org/2000/svg">
  <g fill="none" >
    <path
      d="M12 24C18.6274 24 24 18.6274 24 12C24 5.37258 18.6274 0 12 0C5.37258 0 0 5.37258 0 12C0 18.6274 5.37258 24 12 24Z"
      fill="url(#paint0_linear_337_15)" fill-opacity="0"/>
    <path
      d="M11.23 11.1465C11.23 11.0795 11.2802 11.0293 11.3471 11.0293H12.5522C13.5061 11.0293 14.1589 11.5983 14.1589 12.5021C14.1589 13.4059 13.5061 13.9582 12.5522 13.9582H11.3471C11.2802 13.9582 11.23 13.908 11.23 13.841V11.1465ZM12.5187 13.4059C13.1045 13.4059 13.4727 13.0544 13.4727 12.5021C13.4727 11.9498 13.0877 11.5983 12.5187 11.5983H12.0166C11.9496 11.5983 11.8994 11.6485 11.8994 11.7155V13.2887C11.8994 13.3557 11.9496 13.4059 12.0166 13.4059H12.5187Z"
      fill="white"/>
    <path
      d="M16.7701 12.4515H17.1383C17.2052 12.4515 17.2554 12.5017 17.2554 12.5686V13.5728C17.2554 13.6063 17.2387 13.6565 17.2052 13.6732C16.8705 13.8908 16.4688 14.008 16.0671 14.008C15.1466 14.008 14.4604 13.372 14.4604 12.5017C14.4604 11.6314 15.1299 10.9954 16.0671 10.9954C16.4856 10.9787 16.904 11.1293 17.2052 11.4138C17.2554 11.464 17.2554 11.531 17.2052 11.5812L16.9374 11.8155C16.8872 11.8657 16.8203 11.8657 16.7701 11.8155C16.586 11.6481 16.3517 11.5644 16.1006 11.5644C15.5818 11.5477 15.1466 11.9494 15.1299 12.4682C15.1132 12.987 15.5148 13.4222 16.0337 13.4389C16.0671 13.4389 16.0839 13.4389 16.1174 13.4389C16.268 13.4389 16.4353 13.4054 16.5692 13.3552C16.6194 13.3385 16.6362 13.2883 16.6362 13.2381V12.5686C16.6697 12.5017 16.7199 12.4515 16.7701 12.4515Z"
      fill="white"/>
    <path
      d="M18.3933 11.5815H17.6904C17.6235 11.5815 17.5732 11.5313 17.5732 11.4643V11.1631C17.5732 11.0961 17.6235 11.0459 17.6904 11.0459H20C20.067 11.0459 20.1172 11.0961 20.1172 11.1631V11.4643C20.1172 11.5313 20.067 11.5815 20 11.5815H19.3138C19.2469 11.5815 19.1967 11.6317 19.1967 11.6986V13.8241C19.1967 13.8911 19.1465 13.9413 19.0795 13.9413H18.6444C18.5774 13.9413 18.5272 13.8911 18.5272 13.8241V11.6986C18.5105 11.6317 18.4603 11.5815 18.3933 11.5815Z"
      fill="white"/>
    <path
      d="M5.64017 8.71986H3.98327C3.88285 8.71986 3.8159 8.80354 3.83264 8.90396C3.83264 8.9207 3.83264 8.93743 3.84938 8.95417L4.40168 10.2429C4.41842 10.3098 4.48536 10.3433 4.55231 10.3433H6.20921C6.30963 10.3433 6.37657 10.2596 6.35984 10.1592C6.35984 10.1425 6.35984 10.1257 6.3431 10.109L5.80754 8.82028C5.75733 8.75333 5.70712 8.71986 5.64017 8.71986ZM9.32218 8.82028L7.68201 12.6529C7.6318 12.7366 7.53139 12.7701 7.4477 12.7199C7.41423 12.7031 7.39749 12.6864 7.38076 12.6529L6.94561 11.6153C6.91214 11.565 6.86193 11.5148 6.79498 11.5148H5.15482C5.0544 11.5148 4.98745 11.5985 5.00419 11.6989C5.00419 11.7157 5.00419 11.7324 5.02093 11.7324L6.49373 15.1968C6.5272 15.2471 6.57741 15.2973 6.64436 15.2973H8.26779C8.33473 15.2973 8.38494 15.2638 8.41841 15.1968L11.0962 8.93743C11.1297 8.85375 11.0795 8.75333 10.9958 8.71986C10.9791 8.71986 10.9623 8.71986 10.9456 8.70312H9.45607C9.40586 8.71986 9.33892 8.75333 9.32218 8.82028ZM6.49373 10.7617H4.85356C4.75314 10.7617 4.6862 10.8454 4.70293 10.9458C4.70293 10.9625 4.70293 10.9793 4.71967 10.9793C4.75314 11.0295 4.80335 11.0797 4.8703 11.0797H6.51047C6.61088 11.0797 6.67783 10.996 6.66109 10.8956C6.66109 10.8789 6.66109 10.8621 6.64436 10.8621C6.61088 10.7952 6.56067 10.7617 6.49373 10.7617Z"
      fill="white"/>
    <path
      d="M10.7114 22.8624C4.7198 22.1595 0.435281 16.7369 1.12147 10.7452C1.70725 5.70757 5.67377 1.74105 10.7114 1.15527M13.2386 22.8624C19.2303 22.1595 23.5315 16.7369 22.8286 10.7452C22.2428 5.70757 18.2763 1.74105 13.2386 1.15527"
      stroke="#ECECEC" stroke-width="0.3" stroke-miterlimit="10"/>
    <path
      d="M11.9663 1.43953C12.1697 1.43953 12.3345 1.27468 12.3345 1.07133C12.3345 0.867974 12.1697 0.703125 11.9663 0.703125C11.763 0.703125 11.5981 0.867974 11.5981 1.07133C11.5981 1.27468 11.763 1.43953 11.9663 1.43953Z"
      fill="white"/>
    <path
      d="M11.9667 23.3475C12.1608 23.3475 12.3182 23.1901 12.3182 22.996C12.3182 22.8019 12.1608 22.6445 11.9667 22.6445C11.7726 22.6445 11.6152 22.8019 11.6152 22.996C11.6152 23.1901 11.7726 23.3475 11.9667 23.3475Z"
      fill="white"/>
      <linearGradient id="paint0_linear_337_15" x1="0" y1="12.0033" x2="24.0067" y2="12.0033"
                      gradientUnits="userSpaceOnUse">
        <stop stop-color="#2F3542"/>
        <stop offset="0.3" stop-color="#34383F"/>
        <stop offset="1" stop-color="#3C3C3B"/>
      </linearGradient>
  </g>
</svg>
