<svg width="34" height="34" viewBox="0 0 34 34" fill="none" xmlns="http://www.w3.org/2000/svg">
  <path
    d="M8.00025 19C12.3707 19 15.9136 15.4183 15.9136 11C15.9136 6.58172 12.3707 3 8.00025 3C3.62983 3 0.0869141 6.58172 0.0869141 11C0.0869141 15.4183 3.62983 19 8.00025 19Z"
    fill="url(#paint0_linear_369_45)"/>
  <path fill-rule="evenodd" clip-rule="evenodd"
        d="M11.7694 9.50916L7.97789 15.9248L4.18638 9.50916H11.7694ZM9.73794 10.5986H6.23259L7.98528 13.5643L9.73794 10.5986ZM12.7674 7.81445L12.1305 8.90391H3.83531L3.19336 7.81445H12.7674Z"
        fill="white"/>
  <path
    d="M22 31C28.6274 31 34 25.6274 34 19C34 12.3726 28.6274 7 22 7C15.3726 7 10 12.3726 10 19C10 25.6274 15.3726 31 22 31Z"
    fill="url(#paint1_linear_369_45)"/>
  <path
    d="M21.23 18.1465C21.23 18.0795 21.2802 18.0293 21.3471 18.0293H22.5522C23.5061 18.0293 24.1589 18.5983 24.1589 19.5021C24.1589 20.4059 23.5061 20.9582 22.5522 20.9582H21.3471C21.2802 20.9582 21.23 20.908 21.23 20.841V18.1465ZM22.5187 20.4059C23.1045 20.4059 23.4727 20.0544 23.4727 19.5021C23.4727 18.9498 23.0877 18.5983 22.5187 18.5983H22.0166C21.9496 18.5983 21.8994 18.6485 21.8994 18.7155V20.2887C21.8994 20.3557 21.9496 20.4059 22.0166 20.4059H22.5187Z"
    fill="white"/>
  <path
    d="M26.7701 19.4515H27.1383C27.2052 19.4515 27.2554 19.5017 27.2554 19.5686V20.5728C27.2554 20.6063 27.2387 20.6565 27.2052 20.6732C26.8705 20.8908 26.4688 21.008 26.0671 21.008C25.1466 21.008 24.4604 20.372 24.4604 19.5017C24.4604 18.6314 25.1299 17.9954 26.0671 17.9954C26.4856 17.9787 26.904 18.1293 27.2052 18.4138C27.2554 18.464 27.2554 18.531 27.2052 18.5812L26.9374 18.8155C26.8872 18.8657 26.8203 18.8657 26.7701 18.8155C26.586 18.6481 26.3517 18.5644 26.1006 18.5644C25.5818 18.5477 25.1466 18.9494 25.1299 19.4682C25.1132 19.987 25.5148 20.4222 26.0337 20.4389C26.0671 20.4389 26.0839 20.4389 26.1174 20.4389C26.268 20.4389 26.4353 20.4054 26.5692 20.3552C26.6194 20.3385 26.6362 20.2883 26.6362 20.2381V19.5686C26.6697 19.5017 26.7199 19.4515 26.7701 19.4515Z"
    fill="white"/>
  <path
    d="M28.3933 18.5815H27.6904C27.6235 18.5815 27.5732 18.5313 27.5732 18.4643V18.1631C27.5732 18.0961 27.6235 18.0459 27.6904 18.0459H30C30.067 18.0459 30.1172 18.0961 30.1172 18.1631V18.4643C30.1172 18.5313 30.067 18.5815 30 18.5815H29.3138C29.2469 18.5815 29.1967 18.6317 29.1967 18.6986V20.8241C29.1967 20.8911 29.1465 20.9413 29.0795 20.9413H28.6444C28.5774 20.9413 28.5272 20.8911 28.5272 20.8241V18.6986C28.5105 18.6317 28.4603 18.5815 28.3933 18.5815Z"
    fill="white"/>
  <path
    d="M15.6402 15.7199H13.9833C13.8829 15.7199 13.8159 15.8035 13.8326 15.904C13.8326 15.9207 13.8326 15.9374 13.8494 15.9542L14.4017 17.2429C14.4184 17.3098 14.4854 17.3433 14.5523 17.3433H16.2092C16.3096 17.3433 16.3766 17.2596 16.3598 17.1592C16.3598 17.1425 16.3598 17.1257 16.3431 17.109L15.8075 15.8203C15.7573 15.7533 15.7071 15.7199 15.6402 15.7199ZM19.3222 15.8203L17.682 19.6529C17.6318 19.7366 17.5314 19.7701 17.4477 19.7199C17.4142 19.7031 17.3975 19.6864 17.3808 19.6529L16.9456 18.6153C16.9121 18.565 16.8619 18.5148 16.795 18.5148H15.1548C15.0544 18.5148 14.9875 18.5985 15.0042 18.6989C15.0042 18.7157 15.0042 18.7324 15.0209 18.7324L16.4937 22.1968C16.5272 22.2471 16.5774 22.2973 16.6444 22.2973H18.2678C18.3347 22.2973 18.3849 22.2638 18.4184 22.1968L21.0962 15.9374C21.1297 15.8538 21.0795 15.7533 20.9958 15.7199C20.9791 15.7199 20.9623 15.7199 20.9456 15.7031H19.4561C19.4059 15.7199 19.3389 15.7533 19.3222 15.8203ZM16.4937 17.7617H14.8536C14.7531 17.7617 14.6862 17.8454 14.7029 17.9458C14.7029 17.9625 14.7029 17.9793 14.7197 17.9793C14.7531 18.0295 14.8034 18.0797 14.8703 18.0797H16.5105C16.6109 18.0797 16.6778 17.996 16.6611 17.8956C16.6611 17.8789 16.6611 17.8621 16.6444 17.8621C16.6109 17.7952 16.5607 17.7617 16.4937 17.7617Z"
    fill="white"/>
  <path
    d="M20.7114 29.8624C14.7198 29.1595 10.4353 23.7369 11.1215 17.7452C11.7072 12.7076 15.6738 8.74105 20.7114 8.15527M23.2386 29.8624C29.2303 29.1595 33.5315 23.7369 32.8286 17.7452C32.2428 12.7076 28.2763 8.74105 23.2386 8.15527"
    stroke="#ECECEC" stroke-width="0.3" stroke-miterlimit="10"/>
  <path
    d="M21.9663 8.43953C22.1697 8.43953 22.3345 8.27468 22.3345 8.07133C22.3345 7.86797 22.1697 7.70312 21.9663 7.70312C21.763 7.70312 21.5981 7.86797 21.5981 8.07133C21.5981 8.27468 21.763 8.43953 21.9663 8.43953Z"
    fill="white"/>
  <path
    d="M21.9667 30.3475C22.1608 30.3475 22.3182 30.1901 22.3182 29.996C22.3182 29.8019 22.1608 29.6445 21.9667 29.6445C21.7726 29.6445 21.6152 29.8019 21.6152 29.996C21.6152 30.1901 21.7726 30.3475 21.9667 30.3475Z"
    fill="white"/>
  <defs>
    <linearGradient id="paint0_linear_369_45" x1="14.1944" y1="12.2525" x2="-0.590805" y2="11.0147"
                    gradientUnits="userSpaceOnUse">
      <stop stop-color="#0034C6"/>
      <stop offset="1" stop-color="#0034C6"/>
    </linearGradient>
    <linearGradient id="paint1_linear_369_45" x1="10" y1="19.0033" x2="34.0067" y2="19.0033"
                    gradientUnits="userSpaceOnUse">
      <stop stop-color="#2F3542"/>
      <stop offset="0.3" stop-color="#34383F"/>
      <stop offset="1" stop-color="#3C3C3B"/>
    </linearGradient>
  </defs>
</svg>
