<svg xmlns="http://www.w3.org/2000/svg" width="24px" height="24px" viewBox="0 0 24 23" version="1.1">
    <g>
        <defs>
            <linearGradient id="linear0" gradientUnits="userSpaceOnUse" x1="-1.44" y1="166.11" x2="97.1" y2="61.87" gradientTransform="matrix(0.149181,0,0,0.144763,0.0192809,0)">
                <stop offset="0" style="stop-color:rgb(51.764706%,51.764706%,98.431373%);stop-opacity:1;"/>
                <stop offset="0.31" style="stop-color:rgb(43.921569%,43.529412%,96.078431%);stop-opacity:1;"/>
                <stop offset="0.73" style="stop-color:rgb(35.686275%,35.294118%,93.72549%);stop-opacity:1;"/>
                <stop offset="1" style="stop-color:rgb(32.54902%,32.156863%,92.941176%);stop-opacity:1;"/>
            </linearGradient>
        </defs>
        <g>
            <path fill="url(#linear0)" d="M 22.726562 11.5 C 22.726562 17.234375 17.9375 21.882812 12.027344 21.882812 C 6.117188 21.882812 1.328125 17.234375 1.328125 11.5 C 1.328125 5.765625 6.117188 1.117188 12.027344 1.117188 C 17.9375 1.117188 22.726562 5.765625 22.726562 11.5 Z M 22.726562 11.5 "/>
            <path fill="url(#linear0)" d="M 146.216764 79.44 C 146.216764 115.733071 116.785218 145.172283 80.493293 145.172283 C 44.201367 145.172283 14.769821 115.733071 14.769821 79.44 C 14.769821 43.146929 44.201367 13.707717 80.493293 13.707717 C 116.785218 13.707717 146.216764 43.146929 146.216764 79.44 Z M 146.216764 79.44 " transform="matrix(0.149181,0,0,0.144763,0.0192809,0)"/>
            <path fill="url(#linear0)" d="M 145.771625 79.44 C 145.771625 115.490217 116.549556 144.71356 80.493293 144.71356 C 44.437029 144.71356 15.21496 115.490217 15.21496 79.44 C 15.21496 43.389783 44.437029 14.16644 80.493293 14.16644 C 116.549556 14.16644 145.771625 43.389783 145.771625 79.44 Z M 145.771625 79.44 " transform="matrix(0.149181,0,0,0.144763,0.0192809,0)"/>
            <path fill="rgb(100%,100%,100%)" d="M 9.382812 7.351562 L 6.972656 7.351562 C 6.894531 7.351562 6.824219 7.386719 6.78125 7.449219 C 6.738281 7.515625 6.730469 7.59375 6.761719 7.664062 L 7.554688 9.464844 C 7.589844 9.546875 7.675781 9.597656 7.765625 9.597656 L 10.164062 9.597656 C 10.242188 9.597656 10.3125 9.5625 10.355469 9.5 C 10.398438 9.4375 10.40625 9.359375 10.375 9.289062 L 9.59375 7.488281 C 9.558594 7.40625 9.476562 7.351562 9.382812 7.351562 Z M 14.703125 7.488281 L 12.335938 12.882812 C 12.300781 12.96875 12.21875 13.023438 12.125 13.023438 C 12.03125 13.023438 11.949219 12.96875 11.910156 12.882812 L 11.285156 11.425781 C 11.253906 11.339844 11.167969 11.28125 11.074219 11.28125 L 8.707031 11.28125 C 8.628906 11.28125 8.554688 11.320312 8.511719 11.382812 C 8.472656 11.445312 8.464844 11.523438 8.496094 11.59375 L 10.632812 16.453125 C 10.671875 16.535156 10.753906 16.589844 10.847656 16.589844 L 13.195312 16.589844 C 13.289062 16.589844 13.371094 16.535156 13.410156 16.453125 L 17.292969 7.664062 C 17.324219 7.59375 17.316406 7.515625 17.273438 7.449219 C 17.234375 7.386719 17.160156 7.351562 17.082031 7.351562 L 14.917969 7.351562 C 14.824219 7.351562 14.738281 7.40625 14.703125 7.488281 Z M 10.609375 10.21875 L 8.222656 10.21875 C 8.148438 10.21875 8.074219 10.257812 8.03125 10.320312 C 7.988281 10.382812 7.980469 10.460938 8.011719 10.53125 C 8.046875 10.613281 8.132812 10.667969 8.222656 10.667969 L 10.609375 10.667969 C 10.6875 10.667969 10.761719 10.628906 10.804688 10.566406 C 10.84375 10.503906 10.855469 10.425781 10.824219 10.359375 C 10.789062 10.273438 10.703125 10.21875 10.609375 10.21875 Z M 10.609375 10.21875 "/>
        </g>
    </g>
</svg>
