<svg xmlns="http://www.w3.org/2000/svg" width="16px" height="16px" viewBox="0 0 16 15" version="1.1">
<defs>
<linearGradient id="linear0" gradientUnits="userSpaceOnUse" x1="-1.44" y1="166.11" x2="97.1" y2="61.87" gradientTransform="matrix(0.0994539,0,0,0.0944109,0.012854,0)">
<stop offset="0" style="stop-color:rgb(51.764706%,51.764706%,98.431373%);stop-opacity:1;"/>
<stop offset="0.31" style="stop-color:rgb(43.921569%,43.529412%,96.078431%);stop-opacity:1;"/>
<stop offset="0.73" style="stop-color:rgb(35.686275%,35.294118%,93.72549%);stop-opacity:1;"/>
<stop offset="1" style="stop-color:rgb(32.54902%,32.156863%,92.941176%);stop-opacity:1;"/>
</linearGradient>
<linearGradient id="linear1" gradientUnits="userSpaceOnUse" x1="-1.44" y1="166.11" x2="97.1" y2="61.87" gradientTransform="matrix(1,0,0,1,0,0)">
<stop offset="0" style="stop-color:rgb(51.764706%,51.764706%,98.431373%);stop-opacity:1;"/>
<stop offset="0.31" style="stop-color:rgb(43.921569%,43.529412%,96.078431%);stop-opacity:1;"/>
<stop offset="0.73" style="stop-color:rgb(35.686275%,35.294118%,93.72549%);stop-opacity:1;"/>
<stop offset="1" style="stop-color:rgb(32.54902%,32.156863%,92.941176%);stop-opacity:1;"/>
</linearGradient>
<linearGradient id="linear2" gradientUnits="userSpaceOnUse" x1="-1.44" y1="166.11" x2="97.1" y2="61.87" gradientTransform="matrix(1,0,0,1,0,0)">
<stop offset="0" style="stop-color:rgb(51.764706%,51.764706%,98.431373%);stop-opacity:1;"/>
<stop offset="0.31" style="stop-color:rgb(43.921569%,43.529412%,96.078431%);stop-opacity:1;"/>
<stop offset="0.73" style="stop-color:rgb(35.686275%,35.294118%,93.72549%);stop-opacity:1;"/>
<stop offset="1" style="stop-color:rgb(32.54902%,32.156863%,92.941176%);stop-opacity:1;"/>
</linearGradient>
</defs>
<g id="surface1">
<path style=" stroke:none;fill-rule:nonzero;fill:url(#linear0);" d="M 15.152344 7.5 C 15.152344 11.238281 11.957031 14.269531 8.019531 14.269531 C 4.078125 14.269531 0.886719 11.238281 0.886719 7.5 C 0.886719 3.761719 4.078125 0.730469 8.019531 0.730469 C 11.957031 0.730469 15.152344 3.761719 15.152344 7.5 Z M 15.152344 7.5 "/>
<path style="fill-rule:nonzero;fill:url(#linear1);stroke-width:0.5;stroke-linecap:butt;stroke-linejoin:miter;stroke:rgb(100%,100%,100%);stroke-opacity:1;stroke-miterlimit:10;" d="M 146.216764 79.44 C 146.216764 115.725875 116.79831 145.1435 80.506385 145.1435 C 44.175183 145.1435 14.756728 115.725875 14.756728 79.44 C 14.756728 43.154125 44.175183 13.7365 80.506385 13.7365 C 116.79831 13.7365 146.216764 43.154125 146.216764 79.44 Z M 146.216764 79.44 " transform="matrix(0.0994539,0,0,0.0944109,0.012854,0)"/>
<path style="fill-rule:nonzero;fill:url(#linear2);stroke-width:0.5;stroke-linecap:butt;stroke-linejoin:miter;stroke:rgb(100%,100%,100%);stroke-opacity:1;stroke-miterlimit:10;" d="M 145.745441 79.44 C 145.745441 115.477625 116.523371 144.72975 80.506385 144.72975 C 44.450122 144.72975 15.228052 115.477625 15.228052 79.44 C 15.228052 43.402375 44.450122 14.15025 80.506385 14.15025 C 116.523371 14.15025 145.745441 43.402375 145.745441 79.44 Z M 145.745441 79.44 " transform="matrix(0.0994539,0,0,0.0944109,0.012854,0)"/>
<path style=" stroke:none;fill-rule:nonzero;fill:rgb(100%,100%,100%);fill-opacity:1;" d="M 6.253906 4.792969 L 4.648438 4.792969 C 4.597656 4.792969 4.546875 4.820312 4.519531 4.859375 C 4.492188 4.898438 4.488281 4.953125 4.507812 4.996094 L 5.035156 6.171875 C 5.0625 6.226562 5.117188 6.261719 5.175781 6.261719 L 6.777344 6.261719 C 6.828125 6.261719 6.875 6.234375 6.902344 6.195312 C 6.933594 6.15625 6.9375 6.101562 6.917969 6.058594 L 6.398438 4.882812 C 6.375 4.828125 6.316406 4.792969 6.253906 4.792969 Z M 9.800781 4.882812 L 8.226562 8.402344 C 8.203125 8.457031 8.144531 8.492188 8.082031 8.492188 C 8.019531 8.492188 7.964844 8.457031 7.941406 8.402344 L 7.523438 7.453125 C 7.503906 7.394531 7.445312 7.359375 7.382812 7.359375 L 5.804688 7.359375 C 5.753906 7.355469 5.703125 7.382812 5.675781 7.421875 C 5.648438 7.464844 5.640625 7.515625 5.664062 7.558594 L 7.089844 10.730469 C 7.113281 10.785156 7.167969 10.820312 7.230469 10.820312 L 8.796875 10.820312 C 8.859375 10.820312 8.914062 10.785156 8.9375 10.730469 L 11.53125 4.996094 C 11.550781 4.953125 11.546875 4.898438 11.515625 4.859375 C 11.488281 4.820312 11.441406 4.792969 11.386719 4.792969 L 9.945312 4.792969 C 9.882812 4.792969 9.828125 4.828125 9.800781 4.882812 Z M 7.074219 6.664062 L 5.484375 6.664062 C 5.429688 6.664062 5.382812 6.691406 5.355469 6.730469 C 5.324219 6.773438 5.320312 6.824219 5.339844 6.867188 C 5.367188 6.921875 5.421875 6.957031 5.484375 6.957031 L 7.074219 6.957031 C 7.125 6.957031 7.171875 6.933594 7.203125 6.890625 C 7.230469 6.851562 7.234375 6.800781 7.214844 6.753906 C 7.191406 6.699219 7.136719 6.664062 7.074219 6.664062 Z M 7.074219 6.664062 "/>
</g>
</svg>
